<svg version="1.1" id="Layer_1" xmlns="http://www.w3.org/2000/svg" xmlns:xlink="http://www.w3.org/1999/xlink" x="0px" y="0px"
	 width="100%" viewBox="0 0 512 512" enable-background="new 0 0 512 512" xml:space="preserve">
<path fill="#000000" opacity="1.000000" stroke="none" 
	d="
M302.000000,513.000000 
	C201.357773,513.000000 101.215538,513.000000 1.036655,513.000000 
	C1.036655,342.399414 1.036655,171.798813 1.036655,1.099110 
	C171.558914,1.099110 342.117889,1.099110 512.838440,1.099110 
	C512.838440,171.666550 512.838440,342.333252 512.838440,513.000000 
	C442.798798,513.000000 372.649384,513.000000 302.000000,513.000000 
M345.852417,246.199783 
	C345.852417,246.199783 345.808899,246.226318 345.819153,245.442200 
	C345.214417,243.802750 344.515045,242.191055 344.024536,240.518112 
	C342.983795,236.968445 342.051880,233.386887 341.021271,229.183105 
	C340.683655,228.439789 340.346039,227.696472 339.735779,226.323593 
	C335.413391,219.203125 331.090973,212.082657 327.162781,204.349121 
	C333.107788,200.834457 334.935486,194.491364 332.010620,188.843948 
	C329.335693,183.679184 320.017212,182.021698 314.458710,185.843109 
	C313.346405,183.588745 312.234131,181.334366 311.910797,179.019547 
	C314.125122,177.969315 317.500275,177.409775 318.212585,175.724625 
	C318.866089,174.178619 316.961121,171.204666 315.621368,169.243896 
	C313.623932,166.320541 311.132721,163.734589 308.986359,160.225891 
	C307.806793,157.453064 306.807587,154.586029 305.416840,151.923523 
	C299.003510,139.645782 292.481171,127.425018 286.714722,115.231964 
	C289.918182,116.682076 293.121643,118.132187 296.923767,119.853287 
	C295.457916,110.949425 294.222626,103.478508 293.000031,96.005508 
	C292.388885,92.270157 289.970673,88.350433 294.564758,84.927017 
	C294.735413,84.642853 294.906097,84.358688 295.694244,83.815300 
	C301.778229,77.716103 307.862213,71.616913 313.946198,65.517723 
	C313.597870,65.039383 313.249542,64.561050 312.901215,64.082718 
	C305.369995,63.054508 297.855316,61.874332 290.301819,61.050545 
	C285.109528,60.484283 281.107574,59.178333 278.965942,53.526035 
	C276.453796,46.896000 272.852173,40.678356 269.715179,34.285713 
	C268.739716,32.297867 267.030090,30.392519 265.567169,33.180866 
	C262.360779,39.292313 259.827942,45.757179 257.047638,52.051434 
	C257.047638,52.051434 257.073334,52.023811 256.359741,52.197109 
	C255.144196,54.680252 253.928650,57.163395 252.597946,59.881779 
	C247.285126,60.583015 241.771225,61.188156 236.301529,62.068180 
	C231.114120,62.902786 225.973038,64.025352 219.679047,65.239830 
	C227.406601,72.570099 234.026260,78.555595 240.234421,84.941185 
	C241.823532,86.575706 242.682907,89.435471 242.846466,91.803543 
	C243.031662,94.485054 242.029480,97.242279 241.591980,99.974335 
	C240.545013,106.512634 239.526428,113.055473 238.307388,120.796631 
	C244.707077,117.432060 249.807465,114.750580 254.978531,112.839943 
	C253.625793,117.225548 252.273056,121.611145 250.987610,126.004906 
	C250.987610,126.004906 250.975281,125.938553 250.274475,126.232498 
	C246.947998,133.247620 243.425949,140.179504 240.388138,147.317474 
	C239.114227,150.310776 238.866104,153.740646 237.859543,157.569824 
	C237.509903,158.359055 237.160263,159.148285 236.214249,160.060303 
	C235.793137,160.693024 235.372040,161.325729 234.336777,162.250000 
	C231.806488,165.051376 229.501221,168.109253 226.682526,170.581833 
	C223.878021,173.041916 220.237885,174.572189 217.525528,177.110107 
	C210.248993,183.918686 211.555603,189.613480 220.661591,193.700653 
	C216.090988,199.095810 211.520370,204.490967 206.231400,210.032822 
	C198.512558,213.272095 193.731247,219.576019 189.249847,226.224350 
	C183.745636,234.390076 184.410034,239.202744 191.699173,245.751495 
	C187.465805,251.153824 183.232452,256.556152 178.359024,262.098419 
	C177.953659,262.765625 177.548294,263.432861 176.771240,264.707092 
	C171.589020,271.179230 170.708084,278.892761 181.087479,281.652802 
	C181.397659,281.735291 181.670532,281.958130 181.688034,282.714569 
	C180.428970,284.816193 179.169907,286.917786 177.187134,289.012360 
	C174.101913,291.639709 171.016678,294.267059 167.209290,296.992981 
	C160.057510,299.740997 159.542984,305.607269 160.008224,312.869415 
	C160.196976,316.516632 158.930191,320.580597 163.248886,323.575623 
	C163.579803,323.609222 163.910736,323.642822 164.211929,323.802399 
	C164.211929,323.802399 164.297302,323.705109 164.128403,324.335144 
	C164.424362,324.892456 164.720322,325.449768 164.753326,326.661163 
	C162.040756,331.678253 159.218979,336.640106 156.644531,341.727142 
	C153.729309,347.487549 151.035843,353.360199 148.214752,359.154999 
	C148.214752,359.154999 148.203644,359.113647 147.481964,359.262543 
	C147.395248,359.722321 147.308517,360.182068 147.248306,360.663788 
	C147.248306,360.663788 147.244644,360.685150 146.545578,361.074219 
	C145.771515,362.869263 144.770996,364.602753 144.263702,366.470276 
	C142.353119,373.503571 144.163681,377.770905 150.050476,381.819824 
	C150.682770,382.254730 150.054031,384.523041 149.394836,386.095978 
	C148.668900,386.451569 147.942978,386.807159 146.449738,386.914703 
	C144.833817,386.277435 143.260895,385.265289 141.593811,385.074097 
	C136.826843,384.527374 131.931961,387.474152 130.540771,392.085571 
	C129.348053,396.039154 128.741302,401.025177 134.979889,405.991364 
	C134.684845,408.015930 134.389801,410.040527 133.890991,412.863586 
	C130.926102,422.971893 134.677307,431.003052 144.212372,432.689758 
	C149.503220,433.625671 155.374588,433.237274 160.621460,431.957855 
	C166.864334,430.435547 172.717957,427.316925 178.760910,424.881622 
	C179.077789,425.383057 179.532516,425.901733 179.768784,426.505829 
	C185.587494,441.384033 197.176514,440.094971 206.453186,433.265015 
	C208.793518,431.541992 211.200394,429.909302 212.887146,428.720886 
	C217.455460,431.738678 221.107529,435.180481 225.441025,436.808990 
	C235.858673,440.723877 244.751556,436.525177 252.973282,430.903259 
	C251.452347,447.804688 249.931412,464.706116 248.399689,481.727509 
	C265.524475,481.727509 282.576080,481.727509 300.043274,481.727509 
	C298.625427,466.274170 297.235413,451.123993 296.260651,435.428589 
	C300.850067,431.277405 305.439514,427.126221 310.759216,422.314484 
	C311.640533,423.444946 312.594910,425.400421 314.151459,426.514679 
	C317.469269,428.889618 320.868225,431.486969 324.647919,432.813751 
	C333.633057,435.967773 341.597321,432.981598 348.417206,426.957489 
	C351.780548,423.986633 354.377899,423.104462 358.519714,425.996643 
	C362.352600,428.673157 366.999542,430.376465 371.501526,431.860565 
	C379.924347,434.637238 387.795837,432.854553 393.817596,426.456055 
	C399.918396,419.973511 400.977295,411.820526 397.275696,403.823914 
	C392.584900,393.690430 387.097351,383.925751 382.188446,373.344971 
	C383.357056,371.801788 384.525665,370.258606 385.730743,368.743713 
	C385.730743,368.743713 385.745941,368.787415 386.423920,368.779968 
	C386.553833,368.378296 386.683777,367.976593 386.926636,367.279724 
	C386.926636,367.279724 387.133911,367.041107 387.827454,366.566498 
	C387.829041,363.662201 387.830597,360.757904 388.267853,357.165344 
	C387.792480,352.445923 387.317078,347.726471 387.194458,342.377838 
	C392.544006,339.090576 394.047760,333.353760 391.107147,327.451019 
	C388.785217,322.790222 383.766418,320.956360 378.270660,322.931396 
	C375.933044,323.771454 373.715546,324.945740 371.092468,325.336517 
	C368.662048,321.917389 366.231628,318.498291 364.088257,314.435059 
	C372.521118,307.122040 371.200989,299.423279 366.164337,291.863190 
	C362.246155,285.981964 357.497345,280.654114 353.814667,274.976440 
	C359.719574,270.683044 360.167816,268.898438 356.978241,261.145325 
	C356.418091,255.047073 353.838562,250.328156 347.819611,247.518738 
	C347.669403,247.301758 347.477844,247.131149 346.953339,246.470749 
	C346.589508,246.363708 346.225677,246.256668 345.852417,246.199783 
M385.375183,236.119003 
	C388.742249,225.322693 396.658539,218.905624 407.747742,214.189056 
	C393.134674,211.007782 385.451416,202.044083 381.568176,189.199005 
	C380.136383,202.970078 372.326843,210.967682 359.081024,215.401306 
	C372.311249,221.712112 379.513275,231.764023 383.668365,245.377899 
	C384.234680,241.884842 384.640930,239.379150 385.375183,236.119003 
M127.072311,275.489349 
	C128.077057,277.923370 129.081818,280.357361 130.086563,282.791382 
	C131.251373,267.204407 139.942032,257.943146 152.703400,253.088409 
	C147.658051,250.035843 141.659424,247.672928 137.449387,243.503845 
	C133.223648,239.319199 130.780624,233.334290 127.733826,228.424408 
	C126.304993,240.694412 119.236504,249.585403 105.900017,253.304184 
	C118.115875,261.416290 121.756821,265.155457 127.072311,275.489349 
M188.058411,90.293610 
	C186.846008,87.680725 185.633606,85.067833 184.243988,82.073021 
	C182.477463,92.531204 177.502869,100.119362 165.989639,103.192986 
	C176.377136,108.766846 182.304825,116.710510 185.935135,127.013374 
	C187.497086,115.011719 193.944763,106.994209 206.091385,102.686882 
	C197.819946,100.613808 192.093185,97.256355 188.058411,90.293610 
z"/>
<path fill="#329D30" opacity="1.000000" stroke="none" 
	d="
M150.010254,385.940887 
	C150.054031,384.523041 150.682770,382.254730 150.050476,381.819824 
	C144.163681,377.770905 142.353119,373.503571 144.263702,366.470276 
	C144.770996,364.602753 145.771515,362.869263 146.980408,361.257172 
	C149.730453,370.185303 155.087845,374.400818 162.278320,371.850159 
	C166.954895,370.191223 171.046173,366.765961 175.186874,363.831726 
	C175.846802,363.364105 175.385239,361.313843 175.442154,359.995239 
	C174.254425,360.059662 172.808777,359.713379 171.927994,360.266541 
	C169.416199,361.843964 167.277939,364.030121 164.732452,365.537201 
	C159.150497,368.842072 155.944275,367.645691 152.684723,362.016998 
	C151.903641,360.668182 149.761917,360.107330 148.245972,359.184052 
	C151.035843,353.360199 153.729309,347.487549 156.644531,341.727142 
	C159.218979,336.640106 162.040756,331.678253 165.268433,326.386353 
	C176.283691,330.122742 185.940186,328.107819 195.385437,322.058044 
	C212.183243,328.737671 228.621719,335.376740 245.088013,342.420410 
	C245.454391,349.398956 247.879074,352.899170 253.078812,354.320160 
	C258.065918,355.682983 261.970062,353.664886 265.866455,348.051941 
	C271.144684,349.457245 276.029480,350.723999 281.046143,352.313690 
	C286.734314,357.505096 289.949371,357.853455 296.164612,354.188934 
	C301.879028,354.716492 307.159485,355.268585 312.563904,356.185425 
	C316.100433,364.105865 319.637787,371.534698 328.850586,373.027832 
	C323.635468,375.984039 321.852661,380.174072 322.228821,385.736115 
	C300.204041,397.571136 277.155487,404.693726 252.363129,406.959656 
	C248.182037,403.741058 244.034180,403.491852 239.783234,405.213501 
	C240.699860,402.532013 241.491928,400.232544 242.284012,397.933044 
	C241.946762,397.681061 241.609528,397.429077 241.272278,397.177094 
	C234.328720,403.265808 226.794998,404.443787 218.434464,400.814209 
	C209.293304,396.845673 200.219101,396.010468 191.266693,401.777283 
	C188.147705,403.786438 185.494598,402.968567 183.612259,399.223877 
	C180.549957,393.131775 178.395172,392.474915 172.012436,394.827118 
	C168.272324,396.205475 164.629776,397.861145 160.854919,399.128754 
	C157.691650,400.190948 156.226685,399.226501 156.731720,395.482056 
	C157.794388,387.603241 157.647461,387.580017 150.010254,385.940887 
M185.225815,355.864166 
	C187.038696,353.329132 186.810287,351.046204 183.740479,350.075592 
	C182.790009,349.775024 180.347992,351.127686 180.156693,352.048981 
	C179.512650,355.150757 181.248581,356.629364 185.225815,355.864166 
z"/>
<path fill="#267D24" opacity="1.000000" stroke="none" 
	d="
M381.953430,374.001984 
	C387.097351,383.925751 392.584900,393.690430 397.275696,403.823914 
	C400.977295,411.820526 399.918396,419.973511 393.817596,426.456055 
	C387.795837,432.854553 379.924347,434.637238 371.501526,431.860565 
	C366.999542,430.376465 362.352600,428.673157 358.519714,425.996643 
	C354.377899,423.104462 351.780548,423.986633 348.417206,426.957489 
	C341.597321,432.981598 333.633057,435.967773 324.647919,432.813751 
	C320.868225,431.486969 317.469269,428.889618 314.151459,426.514679 
	C312.594910,425.400421 311.640533,423.444946 310.759216,422.314484 
	C305.439514,427.126221 300.850067,431.277405 295.679382,435.708313 
	C278.773865,443.689117 268.403290,434.330811 258.688416,422.574188 
	C257.235596,424.209808 256.077179,425.407196 255.047775,426.706757 
	C254.229294,427.739990 253.568649,428.898224 252.837952,430.000977 
	C244.751556,436.525177 235.858673,440.723877 225.441025,436.808990 
	C221.107529,435.180481 217.455460,431.738678 212.887146,428.720886 
	C211.200394,429.909302 208.793518,431.541992 206.453186,433.265015 
	C197.176514,440.094971 185.587494,441.384033 179.768784,426.505829 
	C179.532516,425.901733 179.077789,425.383057 178.760910,424.881622 
	C172.717957,427.316925 166.864334,430.435547 160.621460,431.957855 
	C155.374588,433.237274 149.503220,433.625671 144.212372,432.689758 
	C134.677307,431.003052 130.926102,422.971893 134.239578,412.682739 
	C137.918167,419.372192 142.955078,421.868652 150.026291,419.284698 
	C154.660400,417.591278 158.851105,414.721069 163.365021,412.649445 
	C166.477386,411.220978 169.802917,410.257019 172.902054,409.394836 
	C172.614334,411.437958 172.457748,413.171753 172.301147,414.905548 
	C174.186020,414.919006 176.070877,414.932434 178.066833,415.273193 
	C185.499023,424.097870 192.315872,424.196655 200.344406,416.246460 
	C202.254913,414.354523 204.922836,413.227478 207.583160,411.628448 
	C209.762833,411.398285 211.601700,411.288269 213.656158,411.405518 
	C215.233582,412.218964 216.655258,412.696564 217.947647,413.408783 
	C226.907288,418.346069 227.241211,418.336334 234.843781,412.557251 
	C234.437988,418.096161 236.198929,422.084778 241.071442,424.198395 
	C245.278305,426.023254 249.184906,425.185822 252.454941,422.028900 
	C255.956360,418.648560 256.056671,414.486084 255.103943,409.854126 
	C257.720642,409.281281 260.022888,409.031708 262.301056,408.641541 
	C283.779572,404.963257 304.272675,398.388885 323.631470,388.010376 
	C326.287354,389.849976 328.517639,392.392120 331.142792,392.902252 
	C339.985870,394.620575 345.109589,386.795502 341.904358,376.756134 
	C342.804382,370.626831 343.607544,364.885864 344.374603,359.403229 
	C344.250977,359.262756 344.692841,359.902069 345.263245,360.391693 
	C350.647827,365.014038 355.798370,369.963074 361.521759,374.122498 
	C368.111542,378.911621 375.143188,376.259857 381.953430,374.001984 
M376.698090,386.884521 
	C377.219360,388.220276 377.360931,389.997559 378.320923,390.823151 
	C387.399750,398.631195 388.115204,401.884796 383.052124,412.610321 
	C382.545349,413.683899 383.059265,415.239288 383.099426,416.571045 
	C384.475342,416.112244 386.401581,416.075958 387.133514,415.122681 
	C390.615143,410.588318 391.983734,405.343506 390.900635,399.657928 
	C389.587219,392.763397 382.585480,386.046143 376.698090,386.884521 
M142.322220,422.102600 
	C140.953857,422.605652 139.585480,423.108704 138.217087,423.611725 
	C139.190735,424.783722 139.927750,426.473816 141.176239,427.043976 
	C149.593170,430.888062 157.462463,428.988220 164.696274,423.945801 
	C165.898575,423.107697 166.129166,420.875519 166.808777,419.287537 
	C165.198166,419.475708 163.294098,419.174896 162.026947,419.935364 
	C156.015350,423.543152 149.891998,425.369659 142.322220,422.102600 
M368.860443,419.805176 
	C370.430603,420.538391 372.000732,421.271606 373.570892,422.004822 
	C374.049835,420.874878 375.150269,419.532349 374.854462,418.667358 
	C374.461761,417.519196 372.644897,415.790771 372.034271,416.005066 
	C370.734100,416.461334 369.817169,418.009705 368.860443,419.805176 
z"/>
<path fill="#267D24" opacity="1.000000" stroke="none" 
	d="
M353.117737,275.080292 
	C357.497345,280.654114 362.246155,285.981964 366.164337,291.863190 
	C371.200989,299.423279 372.521118,307.122040 363.535339,314.744934 
	C357.440948,315.882477 351.784149,317.582031 347.313507,312.870728 
	C348.513336,311.237091 349.366211,309.669342 350.219055,308.101562 
	C348.888641,307.427948 347.558197,306.754364 346.227783,306.080780 
	C345.654938,307.699127 345.082092,309.317444 344.155273,310.841003 
	C341.144104,308.919617 338.486969,307.093018 335.551483,305.075104 
	C331.526855,313.126862 327.673340,321.285950 317.723053,322.494354 
	C308.294220,323.639343 301.105774,318.106720 293.608643,312.722839 
	C290.613007,315.786804 287.913818,318.696014 285.058289,321.442719 
	C272.741608,333.289856 256.777679,332.271393 245.973480,319.036438 
	C245.304977,318.217560 244.351196,317.631561 243.943954,317.287140 
	C237.547256,322.495789 231.552216,327.377380 225.225311,332.182068 
	C213.201385,326.709503 201.509308,321.313812 189.961243,315.604309 
	C197.786835,307.721649 198.792679,307.785980 204.774429,316.229248 
	C209.802750,323.326691 221.379913,323.841309 226.899567,317.161530 
	C228.378738,315.371490 229.679581,313.430573 231.013535,311.524780 
	C233.238571,308.345947 236.081467,307.240417 240.047638,307.741150 
	C242.329849,308.029297 244.789474,306.912079 247.169235,306.427490 
	C245.054413,304.722778 243.032440,302.877960 240.777664,301.384583 
	C239.912949,300.811859 238.456238,300.739197 237.373444,300.956848 
	C232.376114,301.961395 227.337692,302.888336 222.464294,304.345764 
	C217.904831,305.709290 213.770676,306.406189 210.035156,302.541931 
	C204.819107,297.146118 198.725662,295.865509 191.889755,299.181549 
	C188.447357,300.851410 186.459900,299.560516 184.496780,296.585999 
	C182.671143,293.819824 180.134491,291.522919 177.910858,289.019409 
	C179.169907,286.917786 180.428970,284.816193 182.114761,282.136871 
	C188.521866,280.083832 194.502243,278.608521 200.616272,277.100220 
	C200.931534,278.115875 201.339371,279.542419 201.815887,280.945648 
	C203.905228,287.097931 208.523209,289.507385 214.712738,287.513214 
	C216.579102,286.911896 218.294998,285.843536 220.470093,285.052429 
	C224.230469,285.078949 227.600586,285.042145 231.137573,285.301147 
	C240.530060,295.275970 246.969299,294.252167 262.716492,280.468933 
	C263.782013,281.442719 264.839722,282.470215 265.960480,283.423615 
	C272.503448,288.989716 279.922638,292.297546 288.667572,291.981659 
	C294.797211,291.760254 298.669739,286.940796 297.730621,280.851013 
	C297.530975,279.556366 297.322449,278.263153 297.289581,278.055084 
	C302.926178,280.888519 308.314026,284.508179 314.253265,286.292694 
	C318.964081,287.708069 324.218811,286.380493 327.528107,281.747040 
	C330.042755,278.226196 329.520844,272.145203 326.747375,267.507751 
	C327.663208,266.994537 328.357666,266.791443 329.156311,266.936584 
	C335.664825,274.621002 343.401367,277.880249 353.117737,275.080292 
M362.637054,294.938171 
	C362.100281,294.101410 361.700653,293.120178 361.000488,292.455597 
	C359.062500,290.616150 358.049347,285.677704 354.554779,288.274109 
	C351.221985,290.750305 355.516937,293.081635 356.841217,295.161499 
	C361.014496,301.715973 361.063599,302.624878 356.645630,308.616760 
	C356.107239,309.346954 355.993835,311.037476 356.479614,311.691925 
	C356.954163,312.331238 358.600525,312.653412 359.468445,312.352692 
	C363.300446,311.025055 365.652466,308.140076 365.364319,304.102325 
	C365.158966,301.224670 363.812469,298.428467 362.637054,294.938171 
z"/>
<path fill="#267D24" opacity="1.000000" stroke="none" 
	d="
M326.768555,204.962204 
	C331.090973,212.082657 335.413391,219.203125 339.586243,226.803391 
	C337.899872,228.785553 336.363068,230.287933 334.479523,231.848633 
	C330.441528,233.963272 326.750305,236.019577 322.754547,237.922913 
	C320.552673,236.045364 318.655304,234.320786 316.757935,232.596191 
	C316.485016,232.765427 316.212067,232.934647 315.939148,233.103882 
	C316.989502,235.797089 318.039825,238.490295 318.848083,241.414948 
	C313.973236,244.517242 309.340454,247.388123 304.325684,250.171036 
	C300.375580,250.135849 296.807434,250.188629 293.067871,249.929520 
	C290.252045,246.562897 287.607605,243.508163 284.963196,240.453445 
	C284.312042,242.610168 284.678223,244.184235 284.885345,245.778961 
	C285.736359,252.330673 282.267365,258.237213 277.031860,258.923279 
	C271.671295,259.625702 266.493073,258.862762 262.974701,254.374390 
	C259.147522,249.492096 255.844833,244.198669 252.204468,238.926666 
	C251.000458,240.650055 249.819794,242.886047 248.137253,244.640793 
	C243.933548,249.024948 240.018478,253.973907 235.038849,257.257416 
	C227.854477,261.994720 220.348450,257.505157 220.080505,248.858047 
	C219.958298,244.913956 220.655548,240.944443 221.081970,236.946793 
	C221.182816,236.907120 221.213760,236.663666 221.213760,236.663666 
	C221.213760,236.663666 221.013092,237.018677 220.689423,237.162781 
	C219.461700,237.518326 218.557648,237.729752 217.794647,237.596283 
	C218.057281,236.276428 218.178864,235.301468 218.566559,234.120041 
	C220.079132,232.360733 221.234879,230.723343 222.589172,229.271103 
	C226.509811,225.066956 227.487335,225.468552 231.304199,229.849396 
	C232.820892,231.590225 236.235229,232.952530 238.416779,232.539413 
	C241.659027,231.925461 244.969269,230.046921 247.535629,227.865479 
	C251.447983,224.539886 254.680344,224.159164 259.047791,227.149918 
	C264.946625,231.189301 271.141968,228.801819 273.102325,221.979095 
	C274.013214,218.808914 274.027496,215.381134 274.448242,212.070129 
	C272.681854,213.301651 272.285583,215.177368 271.134735,216.009521 
	C269.493408,217.196365 266.882202,218.733017 265.409607,218.182571 
	C257.008850,215.042358 249.241013,214.321091 241.369583,219.982697 
	C237.835724,222.524460 234.193924,221.655441 231.259109,217.332123 
	C229.391083,214.580307 225.529633,211.163864 222.855072,211.397659 
	C217.297577,211.883453 212.222092,210.512268 206.949768,209.886139 
	C211.520370,204.490967 216.090988,199.095810 221.208405,193.359344 
	C226.891754,191.629227 232.103668,190.457626 237.118179,188.717239 
	C238.593323,188.205261 239.509293,186.082123 240.819733,184.850021 
	C240.957932,185.002670 240.695404,184.685913 241.126373,184.771179 
	C242.142731,184.864777 242.728119,184.873138 243.475327,185.196869 
	C245.085953,188.033249 246.534760,190.554276 247.984100,193.506393 
	C248.536011,197.340454 248.637421,200.896667 249.733139,204.114243 
	C251.964905,210.667755 258.061676,212.282944 262.932465,207.361618 
	C266.227295,204.032608 268.482452,199.674622 271.557983,195.845016 
	C277.609894,198.109970 283.306458,200.306778 289.114899,202.880676 
	C293.789276,208.188400 297.996765,208.455734 303.276306,204.081360 
	C307.303986,203.303680 310.902405,202.567795 314.796570,202.003876 
	C318.984406,203.104614 322.876495,204.033401 326.768555,204.962204 
M328.671600,214.776382 
	C327.556946,212.936737 326.629517,210.936356 325.247467,209.326263 
	C324.572296,208.539719 323.050354,208.479980 321.911713,208.091263 
	C321.593384,209.245087 320.653503,210.725266 321.059601,211.498764 
	C323.363953,215.887848 325.891083,220.172607 328.599121,224.325439 
	C329.081696,225.065491 330.769226,225.019836 331.900360,225.336975 
	C332.201813,224.174957 333.060028,222.784927 332.695801,221.895538 
	C331.763947,219.620239 330.287964,217.567795 328.671600,214.776382 
M315.443420,230.499344 
	C315.443420,230.499344 315.519257,230.459564 315.443420,230.499344 
M283.488342,238.566193 
	C283.488342,238.566193 283.452118,238.490753 283.488342,238.566193 
z"/>
<path fill="#FFB935" opacity="1.000000" stroke="none" 
	d="
M254.907852,112.069092 
	C249.807465,114.750580 244.707077,117.432060 238.307388,120.796631 
	C239.526428,113.055473 240.545013,106.512634 241.591980,99.974335 
	C242.029480,97.242279 243.031662,94.485054 242.846466,91.803543 
	C242.682907,89.435471 241.823532,86.575706 240.234421,84.941185 
	C234.026260,78.555595 227.406601,72.570099 219.679047,65.239830 
	C225.973038,64.025352 231.114120,62.902786 236.301529,62.068180 
	C241.771225,61.188156 247.285126,60.583015 252.597946,59.881779 
	C253.928650,57.163395 255.144196,54.680252 256.851440,52.496506 
	C256.634155,58.400265 254.715179,62.643162 247.853973,62.321789 
	C246.925949,62.278320 245.899963,64.326096 244.919342,65.405540 
	C246.119049,65.991432 247.311935,67.068298 248.519547,67.085075 
	C257.702362,67.212646 259.025482,66.123146 261.502838,57.098431 
	C262.895142,52.026485 262.107056,51.143814 257.020050,52.077728 
	C259.827942,45.757179 262.360779,39.292313 265.567169,33.180866 
	C267.030090,30.392519 268.739716,32.297867 269.715179,34.285713 
	C272.852173,40.678356 276.453796,46.896000 278.965942,53.526035 
	C281.107574,59.178333 285.109528,60.484283 290.301819,61.050545 
	C297.855316,61.874332 305.369995,63.054508 312.901215,64.082718 
	C313.249542,64.561050 313.597870,65.039383 313.946198,65.517723 
	C307.862213,71.616913 301.778229,77.716103 295.168365,83.754181 
	C294.496582,83.567177 294.350708,83.441307 294.421082,83.020142 
	C294.411560,81.429497 294.185822,80.134132 293.960083,78.838768 
	C292.756348,79.128113 291.374573,79.131958 290.377899,79.753380 
	C284.157532,83.631752 283.607635,84.837387 285.517944,92.269936 
	C285.952362,93.960014 287.701752,95.312119 288.845886,96.819778 
	C289.374054,95.014832 290.573944,93.094566 290.288055,91.429398 
	C289.724487,88.146721 289.699615,85.537651 293.468597,84.375656 
	C293.804993,84.766357 293.940552,84.921753 294.076141,85.077148 
	C289.970673,88.350433 292.388885,92.270157 293.000031,96.005508 
	C294.222626,103.478508 295.457916,110.949425 296.923767,119.853287 
	C293.121643,118.132187 289.918182,116.682076 286.052002,115.040779 
	C279.840668,111.640137 274.319275,108.381378 268.708649,105.284256 
	C268.015259,104.901497 266.680878,105.084564 265.926392,105.508644 
	C262.201263,107.602448 258.571350,109.865654 254.907852,112.069092 
M258.438965,106.940567 
	C260.954681,105.670959 263.578552,104.567780 265.927216,103.041168 
	C266.745483,102.509293 266.883942,100.931480 267.332886,99.831352 
	C266.240204,99.410110 264.874298,98.346535 264.100800,98.675598 
	C260.142273,100.359688 256.282043,102.305305 252.524673,104.405075 
	C251.799652,104.810249 251.090378,106.826851 251.413239,107.199440 
	C252.119339,108.014336 253.494003,108.621086 254.593216,108.617363 
	C255.643158,108.613815 256.690125,107.728867 258.438965,106.940567 
M302.125031,68.535950 
	C300.449097,68.158966 298.773193,67.781982 297.097290,67.404991 
	C296.873047,68.617096 296.088379,70.164764 296.563446,70.958138 
	C297.186615,71.998871 299.372955,73.306595 299.877563,72.972923 
	C301.042786,72.202431 301.599640,70.511902 302.125031,68.535950 
M291.485535,106.528572 
	C290.323120,105.210304 289.264160,103.757500 287.896637,102.705956 
	C287.668274,102.530350 285.385529,104.040871 285.318909,104.873619 
	C285.221283,106.093323 286.098694,108.333450 286.863281,108.472351 
	C288.216980,108.718269 289.798401,107.710434 291.485535,106.528572 
M268.988831,46.353127 
	C269.460114,43.392101 268.444244,41.303082 265.236206,41.701035 
	C264.355042,41.810345 262.913422,44.215302 263.149841,45.238609 
	C263.851410,48.275429 265.951111,48.983032 268.988831,46.353127 
z"/>
<path fill="#38AD37" opacity="1.000000" stroke="none" 
	d="
M225.557159,332.258972 
	C231.552216,327.377380 237.547256,322.495789 243.943954,317.287140 
	C244.351196,317.631561 245.304977,318.217560 245.973480,319.036438 
	C256.777679,332.271393 272.741608,333.289856 285.058289,321.442719 
	C287.913818,318.696014 290.613007,315.786804 293.608643,312.722839 
	C301.105774,318.106720 308.294220,323.639343 317.723053,322.494354 
	C327.673340,321.285950 331.526855,313.126862 335.551483,305.075104 
	C338.486969,307.093018 341.144104,308.919617 344.370300,310.994141 
	C345.615112,311.806915 346.290802,312.371735 346.966522,312.936584 
	C351.784149,317.582031 357.440948,315.882477 363.391815,315.067017 
	C366.231628,318.498291 368.662048,321.917389 371.330078,326.018127 
	C371.755585,330.477234 371.943481,334.254761 371.837830,338.296753 
	C368.340668,339.116486 365.063751,340.379486 361.951019,340.057037 
	C357.553558,339.601562 353.186890,338.239532 348.966156,336.798950 
	C335.231293,332.110901 331.288818,335.504761 329.772095,346.677399 
	C329.183685,351.011688 326.374847,351.615723 323.076996,348.430298 
	C320.698456,346.132812 318.810150,343.333221 316.475708,340.983612 
	C312.073212,336.552521 307.380005,336.036743 302.020508,339.219025 
	C300.597076,340.064209 299.301910,341.124512 297.941315,342.076691 
	C292.401306,345.953888 290.118408,345.983002 284.317078,342.404419 
	C282.446167,341.250336 280.481354,340.248474 278.559540,339.176971 
	C278.064911,339.422913 277.570282,339.668884 277.075653,339.914825 
	C277.435364,342.880890 277.795044,345.846924 277.763184,348.800476 
	C273.606445,347.875793 269.841278,346.963593 266.036072,345.645569 
	C265.567169,339.140717 263.061188,335.336334 258.403351,334.235687 
	C252.772919,332.905182 248.717087,335.302582 245.474976,339.977905 
	C238.602066,337.352600 232.079605,334.805786 225.557159,332.258972 
z"/>
<path fill="#AAEEE9" opacity="1.000000" stroke="none" 
	d="
M254.943192,112.454521 
	C258.571350,109.865654 262.201263,107.602448 265.926392,105.508644 
	C266.680878,105.084564 268.015259,104.901497 268.708649,105.284256 
	C274.319275,108.381378 279.840668,111.640137 285.693604,115.016708 
	C292.481171,127.425018 299.003510,139.645782 305.416840,151.923523 
	C306.807587,154.586029 307.806793,157.453064 308.616760,160.774002 
	C306.141205,164.518570 303.490601,164.525040 300.545319,162.604416 
	C299.016357,161.607346 297.493835,160.594772 296.023560,159.514160 
	C288.928284,154.299271 287.322998,153.511322 281.889069,160.743973 
	C279.095062,164.462860 275.409485,163.962097 273.120117,159.834808 
	C271.523376,156.956207 270.736481,153.634521 269.202423,150.713135 
	C267.972565,148.371078 266.163208,146.333359 264.611023,144.160568 
	C263.365540,146.512711 261.829926,148.760696 260.939575,151.240341 
	C259.436646,155.425934 258.864532,160.013412 256.935822,163.960220 
	C254.829514,168.270523 250.925934,168.118484 249.447495,163.608994 
	C247.480423,157.609039 243.663086,156.206192 238.151611,156.972046 
	C238.866104,153.740646 239.114227,150.310776 240.388138,147.317474 
	C243.425949,140.179504 246.947998,133.247620 250.653168,126.494751 
	C249.358078,131.541473 247.590622,136.296448 246.069733,141.129059 
	C245.634109,142.513229 245.911957,144.121948 245.862656,145.627686 
	C247.388977,145.038925 249.775360,144.863968 250.292297,143.789566 
	C252.494446,139.212631 254.568253,134.482071 255.864166,129.589142 
	C256.961761,125.445015 255.509094,124.632332 250.920303,125.996750 
	C252.273056,121.611145 253.625793,117.225548 254.943192,112.454521 
M260.150543,120.812347 
	C260.829285,119.395470 262.081451,117.935539 261.979492,116.577263 
	C261.914551,115.712265 259.920929,114.664017 258.635071,114.358337 
	C258.000732,114.207527 256.209625,115.968735 256.306946,116.156258 
	C257.171539,117.821960 258.341858,119.328995 260.150543,120.812347 
z"/>
<path fill="#38AD37" opacity="1.000000" stroke="none" 
	d="
M220.981140,236.986465 
	C220.655548,240.944443 219.958298,244.913956 220.080505,248.858047 
	C220.348450,257.505157 227.854477,261.994720 235.038849,257.257416 
	C240.018478,253.973907 243.933548,249.024948 248.137253,244.640793 
	C249.819794,242.886047 251.000458,240.650055 252.204468,238.926666 
	C255.844833,244.198669 259.147522,249.492096 262.974701,254.374390 
	C266.493073,258.862762 271.671295,259.625702 277.031860,258.923279 
	C282.267365,258.237213 285.736359,252.330673 284.885345,245.778961 
	C284.678223,244.184235 284.312042,242.610168 284.963196,240.453445 
	C287.607605,243.508163 290.252045,246.562897 292.873108,250.203552 
	C291.288483,253.110291 289.727264,255.431122 287.773560,257.827148 
	C270.503082,264.468536 253.179886,269.249664 234.847565,270.703888 
	C231.730377,266.562256 228.070450,264.441467 223.110260,265.735992 
	C213.949570,268.126740 212.554077,277.115936 220.079819,284.989136 
	C218.294998,285.843536 216.579102,286.911896 214.712738,287.513214 
	C208.523209,289.507385 203.905228,287.097931 201.815887,280.945648 
	C201.339371,279.542419 200.931534,278.115875 200.616272,277.100220 
	C194.502243,278.608521 188.521866,280.083832 182.251129,281.837372 
	C181.670532,281.958130 181.397659,281.735291 181.087479,281.652802 
	C170.708084,278.892761 171.589020,271.179230 177.318909,264.421875 
	C182.972214,265.827148 188.077835,267.517670 192.860870,269.450439 
	C188.141251,269.481354 183.744247,269.269928 178.681824,269.026520 
	C181.575089,274.989166 185.857529,275.700378 190.491394,275.060730 
	C193.513214,274.643585 197.484467,275.416138 198.611481,270.770813 
	C199.938782,270.878662 200.903778,270.957794 202.027496,271.357727 
	C203.783890,272.401917 205.344696,273.271271 207.018341,273.693787 
	C207.273743,273.758240 208.669113,271.585938 208.439636,270.749176 
	C208.109497,269.545380 206.926346,268.026855 205.822113,267.739838 
	C204.739029,267.458374 203.299240,268.549286 201.632996,268.970551 
	C193.833038,266.588287 186.416077,264.273376 178.999084,261.958496 
	C183.232452,256.556152 187.465805,251.153824 192.223587,245.403992 
	C199.166290,247.572723 205.347275,247.912903 211.196411,243.278839 
	C213.260788,241.771759 215.091766,240.055923 216.986389,238.192993 
	C217.050049,238.045898 217.336227,237.903610 217.336227,237.903610 
	C217.336227,237.903610 217.653580,237.941193 217.653580,237.941193 
	C218.557648,237.729752 219.461700,237.518326 220.682632,237.153564 
	C220.999496,237.000244 220.981140,236.986465 220.981140,236.986465 
z"/>
<path fill="#38AD37" opacity="1.000000" stroke="none" 
	d="
M238.005585,157.270935 
	C243.663086,156.206192 247.480423,157.609039 249.447495,163.608994 
	C250.925934,168.118484 254.829514,168.270523 256.935822,163.960220 
	C258.864532,160.013412 259.436646,155.425934 260.939575,151.240341 
	C261.829926,148.760696 263.365540,146.512711 264.611023,144.160568 
	C266.163208,146.333359 267.972565,148.371078 269.202423,150.713135 
	C270.736481,153.634521 271.523376,156.956207 273.120117,159.834808 
	C275.409485,163.962097 279.095062,164.462860 281.889069,160.743973 
	C287.322998,153.511322 288.928284,154.299271 296.023560,159.514160 
	C297.493835,160.594772 299.016357,161.607346 300.545319,162.604416 
	C303.490601,164.525040 306.141205,164.518570 308.549377,161.163605 
	C311.132721,163.734589 313.623932,166.320541 315.621368,169.243896 
	C316.961121,171.204666 318.866089,174.178619 318.212585,175.724625 
	C317.500275,177.409775 314.125122,177.969315 311.081055,179.024551 
	C307.176636,178.719254 304.101929,178.408951 301.763245,178.172913 
	C302.875366,185.946823 303.958374,193.517212 304.707825,201.300812 
	C297.277344,200.308090 290.180389,199.102142 282.940491,197.702225 
	C282.580078,197.257462 282.311218,197.088425 281.996094,197.000595 
	C282.001221,197.000000 281.996246,197.010651 281.965210,196.652802 
	C279.528839,191.797775 277.123444,187.300583 274.463501,182.327469 
	C273.118164,186.132126 272.056610,189.134171 270.687683,191.989670 
	C268.272614,190.531281 266.164917,189.219406 264.046112,187.547195 
	C264.981323,176.785339 259.208496,172.124710 248.559357,174.515961 
	C244.502594,169.425125 240.656616,164.681335 236.810638,159.937531 
	C237.160263,159.148285 237.509903,158.359055 238.005585,157.270935 
z"/>
<path fill="#E36A2B" opacity="1.000000" stroke="none" 
	d="
M252.905609,430.452118 
	C253.568649,428.898224 254.229294,427.739990 255.047775,426.706757 
	C256.077179,425.407196 257.235596,424.209808 258.688416,422.574188 
	C268.403290,434.330811 278.773865,443.689117 295.471741,435.980927 
	C297.235413,451.123993 298.625427,466.274170 300.043274,481.727509 
	C282.576080,481.727509 265.524475,481.727509 248.399689,481.727509 
	C249.931412,464.706116 251.452347,447.804688 252.905609,430.452118 
M292.579559,451.218872 
	C291.578003,450.155914 290.576447,449.092957 289.574860,448.029999 
	C288.889801,449.332214 287.579681,450.659973 287.631683,451.932068 
	C287.820770,456.556885 288.300781,461.190002 289.047333,465.758545 
	C289.250397,467.001312 290.774963,468.028137 291.693054,469.154053 
	C292.445404,467.905640 293.861969,466.640472 293.830933,465.411865 
	C293.718292,460.951599 293.120605,456.503601 292.579559,451.218872 
M259.960052,457.307007 
	C260.425049,453.513672 261.078308,449.728912 261.251587,445.922302 
	C261.311127,444.613434 260.172272,443.250000 259.580902,441.911499 
	C258.478912,443.052826 256.689117,444.045624 256.404541,445.363495 
	C255.566483,449.244537 255.090179,453.246368 254.955063,457.217377 
	C254.892944,459.043030 255.957657,460.907074 256.511353,462.753662 
	C257.635223,461.215393 258.759125,459.677124 259.960052,457.307007 
M259.484619,437.607117 
	C260.501160,436.388153 262.016541,435.282959 262.331055,433.903900 
	C262.496948,433.176483 260.712158,431.502258 259.536285,431.141479 
	C258.707764,430.887360 256.431366,432.446350 256.495911,432.644836 
	C257.038300,434.312836 257.972260,435.853546 259.484619,437.607117 
M295.102936,473.713776 
	C293.499573,473.644379 291.896210,473.574982 290.292847,473.505585 
	C290.317627,474.908325 289.840668,476.669373 290.512482,477.610016 
	C291.146332,478.497559 292.988953,478.521759 294.299866,478.925720 
	C294.729767,477.387177 295.159668,475.848663 295.102936,473.713776 
z"/>
<path fill="#A8ECE7" opacity="1.000000" stroke="none" 
	d="
M210.963043,243.070114 
	C205.347275,247.912903 199.166290,247.572723 192.361115,245.102844 
	C184.410034,239.202744 183.745636,234.390076 189.249847,226.224350 
	C193.731247,219.576019 198.512558,213.272095 206.590576,209.959473 
	C212.222092,210.512268 217.297577,211.883453 222.855072,211.397659 
	C225.529633,211.163864 229.391083,214.580307 231.259109,217.332123 
	C234.193924,221.655441 237.835724,222.524460 241.369583,219.982697 
	C249.241013,214.321091 257.008850,215.042358 265.409607,218.182571 
	C266.882202,218.733017 269.493408,217.196365 271.134735,216.009521 
	C272.285583,215.177368 272.681854,213.301651 274.448242,212.070129 
	C274.027496,215.381134 274.013214,218.808914 273.102325,221.979095 
	C271.141968,228.801819 264.946625,231.189301 259.047791,227.149918 
	C254.680344,224.159164 251.447983,224.539886 247.535629,227.865479 
	C244.969269,230.046921 241.659027,231.925461 238.416779,232.539413 
	C236.235229,232.952530 232.820892,231.590225 231.304199,229.849396 
	C227.487335,225.468552 226.509811,225.066956 222.589172,229.271103 
	C221.234879,230.723343 220.079132,232.360733 218.350739,233.793549 
	C216.167679,233.426910 214.466583,233.180283 212.765488,232.933670 
	C213.221893,234.979630 213.678299,237.025604 214.038513,239.383057 
	C212.949234,240.819748 211.956146,241.944931 210.963043,243.070114 
M195.764313,230.083160 
	C194.727463,229.501724 193.687439,228.497787 192.654984,228.505524 
	C192.083054,228.509796 191.149597,230.159225 191.025467,231.148224 
	C190.558243,234.870850 191.669540,237.983047 195.063431,240.069992 
	C198.778534,242.354477 202.579910,242.525757 206.398438,240.570648 
	C207.071838,240.225861 207.724808,238.923996 207.602554,238.195862 
	C207.475983,237.441940 206.487854,236.454269 205.710602,236.270386 
	C204.293549,235.935165 202.745728,236.002396 201.267044,236.107361 
	C197.458710,236.377716 195.667664,234.697983 195.764313,230.083160 
z"/>
<path fill="#A8EBE5" opacity="1.000000" stroke="none" 
	d="
M177.548996,289.015869 
	C180.134491,291.522919 182.671143,293.819824 184.496780,296.585999 
	C186.459900,299.560516 188.447357,300.851410 191.889755,299.181549 
	C198.725662,295.865509 204.819107,297.146118 210.035156,302.541931 
	C213.770676,306.406189 217.904831,305.709290 222.464294,304.345764 
	C227.337692,302.888336 232.376114,301.961395 237.373444,300.956848 
	C238.456238,300.739197 239.912949,300.811859 240.777664,301.384583 
	C243.032440,302.877960 245.054413,304.722778 247.169235,306.427490 
	C244.789474,306.912079 242.329849,308.029297 240.047638,307.741150 
	C236.081467,307.240417 233.238571,308.345947 231.013535,311.524780 
	C229.679581,313.430573 228.378738,315.371490 226.899567,317.161530 
	C221.379913,323.841309 209.802750,323.326691 204.774429,316.229248 
	C198.792679,307.785980 197.786835,307.721649 189.613251,315.602600 
	C186.308304,314.554565 183.495346,313.194427 180.750458,311.406189 
	C181.880936,301.308990 178.526337,297.642914 167.931458,296.894440 
	C171.016678,294.267059 174.101913,291.639709 177.548996,289.015869 
z"/>
<path fill="#FFB833" opacity="1.000000" stroke="none" 
	d="
M385.211182,236.496231 
	C384.640930,239.379150 384.234680,241.884842 383.668365,245.377899 
	C379.513275,231.764023 372.311249,221.712112 359.081024,215.401306 
	C372.326843,210.967682 380.136383,202.970078 381.568176,189.199005 
	C385.451416,202.044083 393.134674,211.007782 407.747742,214.189056 
	C396.658539,218.905624 388.742249,225.322693 385.211182,236.496231 
z"/>
<path fill="#FFB833" opacity="1.000000" stroke="none" 
	d="
M127.013840,275.106079 
	C121.756821,265.155457 118.115875,261.416290 105.900017,253.304184 
	C119.236504,249.585403 126.304993,240.694412 127.733826,228.424408 
	C130.780624,233.334290 133.223648,239.319199 137.449387,243.503845 
	C141.659424,247.672928 147.658051,250.035843 152.703400,253.088409 
	C139.942032,257.943146 131.251373,267.204407 130.086563,282.791382 
	C129.081818,280.357361 128.077057,277.923370 127.013840,275.106079 
z"/>
<path fill="#A8ECE7" opacity="1.000000" stroke="none" 
	d="
M329.052155,266.588348 
	C328.357666,266.791443 327.663208,266.994537 326.506042,267.767181 
	C325.332764,270.543579 324.635223,272.754700 323.909271,274.956451 
	C321.659790,281.778961 316.910828,284.009857 310.299225,281.277802 
	C305.159454,279.154022 302.376923,274.913177 300.792175,269.754883 
	C302.702148,268.816345 304.243774,268.098297 306.007996,267.618805 
	C311.895996,272.235565 313.331207,271.783600 315.847748,264.828735 
	C319.579895,254.514404 320.982574,253.731934 332.008484,255.804001 
	C333.316254,256.049774 334.659515,256.168732 335.929871,256.539825 
	C339.568359,257.602692 342.117340,256.508850 343.869507,253.015045 
	C345.140472,255.079391 346.009735,257.111267 347.039124,259.058472 
	C347.727173,260.359924 348.643036,261.540955 349.456940,262.775848 
	C350.331604,261.426849 352.172943,259.835144 351.906219,258.772736 
	C350.970490,255.046005 349.308960,251.501495 347.922974,247.887787 
	C353.838562,250.328156 356.418091,255.047073 356.924500,261.904724 
	C356.288300,266.675049 354.601654,269.882446 350.533813,271.347382 
	C345.114899,273.298859 339.928314,273.252014 334.983063,269.842621 
	C333.136108,268.569275 331.036530,267.662354 329.052155,266.588348 
M343.040833,264.160767 
	C341.701355,264.709381 340.037903,264.965057 339.162354,265.933197 
	C338.739868,266.400360 339.460663,268.666687 340.286102,269.278168 
	C341.083374,269.868774 342.680725,269.379364 343.926605,269.364410 
	C343.866577,267.756805 343.806549,266.149170 343.040833,264.160767 
z"/>
<path fill="#A8EBE5" opacity="1.000000" stroke="none" 
	d="
M173.033188,409.085480 
	C169.802917,410.257019 166.477386,411.220978 163.365021,412.649445 
	C158.851105,414.721069 154.660400,417.591278 150.026291,419.284698 
	C142.955078,421.868652 137.918167,419.372192 134.341461,412.283508 
	C134.389801,410.040527 134.684845,408.015930 135.401413,405.639923 
	C141.774323,407.495941 146.569885,406.032715 150.548737,400.844360 
	C168.189056,404.002930 185.453506,407.069275 202.705231,410.205719 
	C204.259735,410.488312 205.731949,411.223572 207.242371,411.748627 
	C204.922836,413.227478 202.254913,414.354523 200.344406,416.246460 
	C192.315872,424.196655 185.499023,424.097870 178.054382,414.896729 
	C178.307632,410.563721 175.905380,409.599274 173.033188,409.085480 
z"/>
<path fill="#A8EBE5" opacity="1.000000" stroke="none" 
	d="
M149.702545,386.018433 
	C157.647461,387.580017 157.794388,387.603241 156.731720,395.482056 
	C156.226685,399.226501 157.691650,400.190948 160.854919,399.128754 
	C164.629776,397.861145 168.272324,396.205475 172.012436,394.827118 
	C178.395172,392.474915 180.549957,393.131775 183.612259,399.223877 
	C185.494598,402.968567 188.147705,403.786438 191.266693,401.777283 
	C200.219101,396.010468 209.293304,396.845673 218.434464,400.814209 
	C226.794998,404.443787 234.328720,403.265808 241.272278,397.177094 
	C241.609528,397.429077 241.946762,397.681061 242.284012,397.933044 
	C241.491928,400.232544 240.699860,402.532013 239.590515,405.364807 
	C238.193207,406.952820 237.113190,408.007507 235.563782,409.019928 
	C206.539642,409.963959 178.555389,406.233063 151.004715,398.402649 
	C149.733459,394.385010 148.475250,390.773865 147.217056,387.162750 
	C147.942978,386.807159 148.668900,386.451569 149.702545,386.018433 
z"/>
<path fill="#FFB833" opacity="1.000000" stroke="none" 
	d="
M188.248581,90.617905 
	C192.093185,97.256355 197.819946,100.613808 206.091385,102.686882 
	C193.944763,106.994209 187.497086,115.011719 185.935135,127.013374 
	C182.304825,116.710510 176.377136,108.766846 165.989639,103.192986 
	C177.502869,100.119362 182.477463,92.531204 184.243988,82.073021 
	C185.633606,85.067833 186.846008,87.680725 188.248581,90.617905 
z"/>
<path fill="#A8ECE7" opacity="1.000000" stroke="none" 
	d="
M386.841675,343.007050 
	C387.317078,347.726471 387.792480,352.445923 387.760803,357.699280 
	C383.909027,359.842804 380.675232,362.434052 377.193024,362.827637 
	C372.197174,363.392303 367.020142,362.354156 361.958618,361.992645 
	C361.996735,361.985016 362.014648,362.060730 361.975586,361.710510 
	C359.275848,359.785614 356.615173,358.210938 353.915039,356.277649 
	C352.455383,354.848602 351.035217,353.778168 349.856506,352.424927 
	C358.204712,348.440735 366.311401,344.739380 374.763428,341.193237 
	C379.019745,341.901306 382.930695,342.454193 386.841675,343.007050 
z"/>
<path fill="#3BAD39" opacity="1.000000" stroke="none" 
	d="
M243.313477,184.881500 
	C242.728119,184.873138 242.142731,184.864777 241.213501,184.453766 
	C241.085678,183.265488 241.737183,182.152893 241.437851,181.754257 
	C240.454727,180.444977 239.255753,179.153763 237.848251,178.399338 
	C237.451843,178.186859 235.152374,180.074661 235.287125,180.594040 
	C235.687469,182.137100 236.689957,183.649872 237.826920,184.812973 
	C238.272614,185.268906 239.700790,184.764450 240.681534,184.697372 
	C239.509293,186.082123 238.593323,188.205261 237.118179,188.717239 
	C232.103668,190.457626 226.891754,191.629227 221.319611,193.049667 
	C211.555603,189.613480 210.248993,183.918686 217.525528,177.110107 
	C220.237885,174.572189 223.878021,173.041916 226.682526,170.581833 
	C229.501221,168.109253 231.806488,165.051376 234.838928,162.379944 
	C239.263260,167.032410 243.185440,171.554932 246.946838,176.384811 
	C245.628525,179.421936 244.470993,182.151718 243.313477,184.881500 
M232.653244,186.609497 
	C231.258392,185.895691 229.799103,184.488297 228.481949,184.610703 
	C225.631668,184.875519 223.283310,185.282578 222.262131,181.669418 
	C222.038086,180.876801 220.323837,180.505356 219.295868,179.939941 
	C218.762329,181.016022 217.499924,182.472809 217.827164,183.099319 
	C218.968628,185.284714 220.245422,187.996841 222.234222,189.009567 
	C225.669205,190.758743 229.542877,190.636429 232.653244,186.609497 
z"/>
<path fill="#FA1D27" opacity="1.000000" stroke="none" 
	d="
M387.018066,342.692444 
	C382.930695,342.454193 379.019745,341.901306 374.659485,340.986084 
	C373.873047,340.320587 373.535889,340.017456 373.130005,339.463196 
	C372.751312,338.818787 372.441345,338.425537 372.131378,338.032257 
	C371.943481,334.254761 371.755585,330.477234 371.505554,326.333923 
	C373.715546,324.945740 375.933044,323.771454 378.270660,322.931396 
	C383.766418,320.956360 388.785217,322.790222 391.107147,327.451019 
	C394.047760,333.353760 392.544006,339.090576 387.018066,342.692444 
z"/>
<path fill="#FFB833" opacity="1.000000" stroke="none" 
	d="
M326.965668,204.655670 
	C322.876495,204.033401 318.984406,203.104614 314.677032,201.729935 
	C313.871521,200.845871 313.481293,200.407669 313.025208,199.574509 
	C310.528015,194.321198 312.974365,190.261795 315.093689,186.148819 
	C320.017212,182.021698 329.335693,183.679184 332.010620,188.843948 
	C334.935486,194.491364 333.107788,200.834457 326.965668,204.655670 
z"/>
<path fill="#FFB935" opacity="1.000000" stroke="none" 
	d="
M146.833405,387.038727 
	C148.475250,390.773865 149.733459,394.385010 150.825012,398.610229 
	C150.495392,399.739899 150.332397,400.255493 150.169403,400.771088 
	C146.569885,406.032715 141.774323,407.495941 135.424225,405.252197 
	C128.741302,401.025177 129.348053,396.039154 130.540771,392.085571 
	C131.931961,387.474152 136.826843,384.527374 141.593811,385.074097 
	C143.260895,385.265289 144.833817,386.277435 146.833405,387.038727 
z"/>
<path fill="#FA1D27" opacity="1.000000" stroke="none" 
	d="
M167.570374,296.943726 
	C178.526337,297.642914 181.880936,301.308990 180.559082,311.583099 
	C180.091843,312.664764 179.884018,313.141418 179.397888,313.827332 
	C172.762375,319.618195 167.470139,319.328156 162.082916,313.165619 
	C161.612930,312.628021 160.806992,312.384094 160.157089,312.003784 
	C159.542984,305.607269 160.057510,299.740997 167.570374,296.943726 
z"/>
<path fill="#3BAD39" opacity="1.000000" stroke="none" 
	d="
M353.954468,356.636292 
	C356.615173,358.210938 359.275848,359.785614 361.580017,361.716888 
	C360.121002,362.752472 359.018524,363.431396 357.916077,364.110352 
	C358.732361,365.216003 359.315399,366.705200 360.402130,367.366180 
	C368.552429,372.323120 377.014648,372.937256 385.694305,368.715424 
	C384.525665,370.258606 383.357056,371.801788 382.070923,373.673462 
	C375.143188,376.259857 368.111542,378.911621 361.521759,374.122498 
	C355.798370,369.963074 350.647827,365.014038 345.263245,360.391693 
	C344.692841,359.902069 344.250977,359.262756 344.374603,359.403229 
	C343.607544,364.885864 342.804382,370.626831 341.628815,376.572235 
	C338.734650,375.235168 336.212891,373.693665 334.037415,372.029236 
	C336.614777,369.421967 339.653107,367.271179 340.855408,364.361694 
	C342.119690,361.302155 341.627106,357.516663 342.280823,353.880707 
	C344.586243,353.445557 346.513123,353.178070 348.256958,353.242371 
	C348.547516,355.371277 349.021088,357.168365 349.494690,358.965485 
	C350.981293,358.189087 352.467865,357.412689 353.954468,356.636292 
z"/>
<path fill="#A8EBE5" opacity="1.000000" stroke="none" 
	d="
M160.082657,312.436584 
	C160.806992,312.384094 161.612930,312.628021 162.082916,313.165619 
	C167.470139,319.328156 172.762375,319.618195 179.737091,314.000916 
	C182.662552,315.305695 184.970474,316.646118 187.080811,318.276245 
	C180.593353,325.723206 172.800613,326.275543 164.297302,323.705109 
	C164.297302,323.705109 164.211929,323.802399 164.113968,323.475647 
	C163.659485,323.143280 163.302979,323.137634 162.946457,323.131989 
	C158.930191,320.580597 160.196976,316.516632 160.082657,312.436584 
z"/>
<path fill="#267D24" opacity="1.000000" stroke="none" 
	d="
M314.776184,185.995972 
	C312.974365,190.261795 310.528015,194.321198 312.629547,199.654999 
	C309.880310,200.449509 307.460846,200.768555 305.041351,201.087585 
	C303.958374,193.517212 302.875366,185.946823 301.763245,178.172913 
	C304.101929,178.408951 307.176636,178.719254 310.686584,179.054779 
	C312.234131,181.334366 313.346405,183.588745 314.776184,185.995972 
z"/>
<path fill="#F4F9F4" opacity="1.000000" stroke="none" 
	d="
M148.230362,359.169525 
	C149.761917,360.107330 151.903641,360.668182 152.684723,362.016998 
	C155.944275,367.645691 159.150497,368.842072 164.732452,365.537201 
	C167.277939,364.030121 169.416199,361.843964 171.927994,360.266541 
	C172.808777,359.713379 174.254425,360.059662 175.442154,359.995239 
	C175.385239,361.313843 175.846802,363.364105 175.186874,363.831726 
	C171.046173,366.765961 166.954895,370.191223 162.278320,371.850159 
	C155.087845,374.400818 149.730453,370.185303 147.329956,361.062622 
	C147.244644,360.685150 147.248306,360.663788 147.525833,360.481079 
	C147.936783,359.903473 148.070206,359.508545 148.203644,359.113647 
	C148.203644,359.113647 148.214752,359.154999 148.230362,359.169525 
z"/>
<path fill="#267D24" opacity="1.000000" stroke="none" 
	d="
M341.075317,229.818390 
	C342.051880,233.386887 342.983795,236.968445 344.024536,240.518112 
	C344.515045,242.191055 345.214417,243.802750 345.448181,245.859650 
	C343.341278,246.158752 341.605377,246.040390 339.440491,245.944229 
	C333.352875,246.851654 328.863983,244.518387 325.075043,240.563553 
	C328.130005,238.491333 330.978943,236.681717 333.925415,235.217010 
	C335.026520,238.189209 337.088318,239.766891 339.332642,237.801529 
	C341.774811,235.662857 340.411041,233.312424 338.076874,231.521240 
	C339.209778,230.785202 340.142548,230.301804 341.075317,229.818390 
z"/>
<path fill="#F4F9F4" opacity="1.000000" stroke="none" 
	d="
M385.712524,368.729553 
	C377.014648,372.937256 368.552429,372.323120 360.402130,367.366180 
	C359.315399,366.705200 358.732361,365.216003 357.916077,364.110352 
	C359.018524,363.431396 360.121002,362.752472 361.619049,362.067139 
	C362.014648,362.060730 361.996735,361.985016 362.116486,362.314880 
	C368.870575,366.396423 375.566528,368.277039 382.828400,364.069641 
	C385.810822,362.341675 387.066864,364.057953 387.133911,367.041107 
	C387.133911,367.041107 386.926636,367.279724 386.587189,367.541199 
	C386.080475,368.130890 385.913208,368.459167 385.745941,368.787415 
	C385.745941,368.787415 385.730743,368.743713 385.712524,368.729553 
z"/>
<path fill="#267D24" opacity="1.000000" stroke="none" 
	d="
M164.212860,324.020142 
	C172.800613,326.275543 180.593353,325.723206 187.412659,318.341248 
	C190.303421,319.416870 192.664780,320.717194 195.026123,322.017517 
	C185.940186,328.107819 176.283691,330.122742 165.399902,326.059296 
	C164.720322,325.449768 164.424362,324.892456 164.212860,324.020142 
z"/>
<path fill="#3BAD39" opacity="1.000000" stroke="none" 
	d="
M329.156311,266.936584 
	C331.036530,267.662354 333.136108,268.569275 334.983063,269.842621 
	C339.928314,273.252014 345.114899,273.298859 350.533813,271.347382 
	C354.601654,269.882446 356.288300,266.675049 356.979370,262.304382 
	C360.167816,268.898438 359.719574,270.683044 353.466187,275.028381 
	C343.401367,277.880249 335.664825,274.621002 329.156311,266.936584 
z"/>
<path fill="#F4F9F4" opacity="1.000000" stroke="none" 
	d="
M339.869476,245.922043 
	C341.605377,246.040390 343.341278,246.158752 345.443054,246.251709 
	C345.808899,246.226318 345.852417,246.199783 345.912354,246.510529 
	C346.396515,246.883133 346.820770,246.945023 347.244995,247.006912 
	C347.477844,247.131149 347.669403,247.301758 347.871277,247.703262 
	C349.308960,251.501495 350.970490,255.046005 351.906219,258.772736 
	C352.172943,259.835144 350.331604,261.426849 349.456940,262.775848 
	C348.643036,261.540955 347.727173,260.359924 347.039124,259.058472 
	C346.009735,257.111267 345.140472,255.079391 343.797363,252.641174 
	C342.217590,250.106567 341.043518,248.014297 339.869476,245.922043 
z"/>
<path fill="#3BAD39" opacity="1.000000" stroke="none" 
	d="
M387.480682,366.803802 
	C387.066864,364.057953 385.810822,362.341675 382.828400,364.069641 
	C375.566528,368.277039 368.870575,366.396423 362.078369,362.322510 
	C367.020142,362.354156 372.197174,363.392303 377.193024,362.827637 
	C380.675232,362.434052 383.909027,359.842804 387.542969,358.043396 
	C387.830597,360.757904 387.829041,363.662201 387.480682,366.803802 
z"/>
<path fill="#384132" opacity="1.000000" stroke="none" 
	d="
M178.679062,262.028442 
	C186.416077,264.273376 193.833038,266.588287 201.650848,269.305542 
	C201.990738,270.150879 201.929749,270.593903 201.868774,271.036926 
	C200.903778,270.957794 199.938782,270.878662 198.414001,270.481934 
	C196.297287,269.845612 194.740387,269.526886 193.183472,269.208160 
	C188.077835,267.517670 182.972214,265.827148 177.504761,264.118347 
	C177.548294,263.432861 177.953659,262.765625 178.679062,262.028442 
z"/>
<path fill="#384132" opacity="1.000000" stroke="none" 
	d="
M247.107635,176.077484 
	C243.185440,171.554932 239.263260,167.032410 235.146011,162.234161 
	C235.372040,161.325729 235.793137,160.693024 236.512451,159.998917 
	C240.656616,164.681335 244.502594,169.425125 248.380890,174.715759 
	C247.978012,175.534225 247.542816,175.805862 247.107635,176.077484 
z"/>
<path fill="#384132" opacity="1.000000" stroke="none" 
	d="
M341.048279,229.500748 
	C340.142548,230.301804 339.209778,230.785202 337.729889,231.571564 
	C336.479614,231.945343 335.776520,232.016159 335.010651,232.013611 
	C334.947906,231.940231 334.826263,231.790298 334.826263,231.790298 
	C336.363068,230.287933 337.899872,228.785553 339.722534,227.118164 
	C340.346039,227.696472 340.683655,228.439789 341.048279,229.500748 
z"/>
<path fill="#FFB935" opacity="1.000000" stroke="none" 
	d="
M294.859619,83.883789 
	C294.906097,84.358688 294.735413,84.642853 294.320435,85.002083 
	C293.940552,84.921753 293.804993,84.766357 293.608154,84.219948 
	C293.739258,83.623268 293.958588,83.452103 294.204834,83.315430 
	C294.350708,83.441307 294.496582,83.567177 294.859619,83.883789 
z"/>
<path fill="#3BAD39" opacity="1.000000" stroke="none" 
	d="
M386.084930,368.783691 
	C385.913208,368.459167 386.080475,368.130890 386.530701,367.688782 
	C386.683777,367.976593 386.553833,368.378296 386.084930,368.783691 
z"/>
<path fill="#267D24" opacity="1.000000" stroke="none" 
	d="
M347.099182,246.738831 
	C346.820770,246.945023 346.396515,246.883133 345.917053,246.485443 
	C346.225677,246.256668 346.589508,246.363708 347.099182,246.738831 
z"/>
<path fill="#267D24" opacity="1.000000" stroke="none" 
	d="
M163.097672,323.353821 
	C163.302979,323.137634 163.659485,323.143280 164.128830,323.412659 
	C163.910736,323.642822 163.579803,323.609222 163.097672,323.353821 
z"/>
<path fill="#329D30" opacity="1.000000" stroke="none" 
	d="
M147.842804,359.188110 
	C148.070206,359.508545 147.936783,359.903473 147.512573,360.470093 
	C147.308517,360.182068 147.395248,359.722321 147.842804,359.188110 
z"/>
<path fill="#A8ECE7" opacity="1.000000" stroke="none" 
	d="
M341.902222,354.048370 
	C341.627106,357.516663 342.119690,361.302155 340.855408,364.361694 
	C339.653107,367.271179 336.614777,369.421967 333.736481,372.029388 
	C331.802032,372.369904 330.514832,372.587372 329.227631,372.804810 
	C319.637787,371.534698 316.100433,364.105865 313.072693,356.161285 
	C322.939117,355.197754 332.420685,354.623047 341.902222,354.048370 
z"/>
<path fill="#FA1D27" opacity="1.000000" stroke="none" 
	d="
M236.033173,409.062225 
	C237.113190,408.007507 238.193207,406.952820 239.465942,405.746826 
	C244.034180,403.491852 248.182037,403.741058 252.499298,407.241333 
	C253.552841,408.495697 254.165573,409.303955 254.778320,410.112213 
	C256.056671,414.486084 255.956360,418.648560 252.454941,422.028900 
	C249.184906,425.185822 245.278305,426.023254 241.071442,424.198395 
	C236.198929,422.084778 234.437988,418.096161 234.913300,412.331421 
	C234.959824,411.689606 234.998260,411.218658 235.187103,410.980103 
	C235.595032,410.181763 235.814102,409.621979 236.033173,409.062225 
z"/>
<path fill="#FFB833" opacity="1.000000" stroke="none" 
	d="
M245.825470,340.056396 
	C248.717087,335.302582 252.772919,332.905182 258.403351,334.235687 
	C263.061188,335.336334 265.567169,339.140717 265.903015,345.944580 
	C265.697693,347.070740 265.585388,347.492065 265.473083,347.913422 
	C261.970062,353.664886 258.065918,355.682983 253.078812,354.320160 
	C247.879074,352.899170 245.454391,349.398956 245.282196,342.225494 
	C245.574188,341.102783 245.699829,340.579590 245.825470,340.056396 
z"/>
<path fill="#FFB833" opacity="1.000000" stroke="none" 
	d="
M328.850586,373.027802 
	C330.514832,372.587372 331.802032,372.369904 333.390198,372.152283 
	C336.212891,373.693665 338.734650,375.235168 341.531982,376.960541 
	C345.109589,386.795502 339.985870,394.620575 331.142792,392.902252 
	C328.517639,392.392120 326.287354,389.849976 323.567261,387.723022 
	C323.038788,386.661499 322.819183,386.115906 322.599579,385.570282 
	C321.852661,380.174072 323.635468,375.984039 328.850586,373.027802 
z"/>
<path fill="#434A45" opacity="1.000000" stroke="none" 
	d="
M265.866455,348.051941 
	C265.585388,347.492065 265.697693,347.070740 265.943054,346.350403 
	C269.841278,346.963593 273.606445,347.875793 278.153351,348.899475 
	C285.851318,349.979218 292.767578,350.947449 300.056702,352.143860 
	C303.826416,352.534729 307.223175,352.697418 311.032532,352.994965 
	C319.908722,352.830933 328.383026,352.692322 336.829224,352.131348 
	C339.230957,351.971832 341.551056,350.583191 343.753815,349.812378 
	C354.872101,350.200348 363.930206,344.624176 373.198700,339.714325 
	C373.535889,340.017456 373.873047,340.320587 374.314148,340.830872 
	C366.311401,344.739380 358.204712,348.440735 349.656342,352.453552 
	C348.968903,352.880157 348.710663,352.928680 348.439972,352.910583 
	C346.513123,353.178070 344.586243,353.445557 342.280823,353.880707 
	C332.420685,354.623047 322.939117,355.197754 312.948792,355.796570 
	C307.159485,355.268585 301.879028,354.716492 295.758759,354.136292 
	C290.250763,353.402374 285.582520,352.696564 280.914307,351.990723 
	C276.029480,350.723999 271.144684,349.457245 265.866455,348.051941 
z"/>
<path fill="#384132" opacity="1.000000" stroke="none" 
	d="
M322.228821,385.736115 
	C322.819183,386.115906 323.038788,386.661499 323.322601,387.494507 
	C304.272675,398.388885 283.779572,404.963257 262.301056,408.641541 
	C260.022888,409.031708 257.720642,409.281281 255.103943,409.854126 
	C254.165573,409.303955 253.552841,408.495697 252.803925,407.405762 
	C277.155487,404.693726 300.204041,397.571136 322.228821,385.736115 
z"/>
<path fill="#384132" opacity="1.000000" stroke="none" 
	d="
M245.474991,339.977905 
	C245.699829,340.579590 245.574188,341.102783 245.254379,341.820892 
	C228.621719,335.376740 212.183243,328.737671 195.385437,322.058044 
	C192.664780,320.717194 190.303421,319.416870 187.610229,318.051575 
	C184.970474,316.646118 182.662552,315.305695 180.015411,313.791687 
	C179.884018,313.141418 180.091843,312.664764 180.491028,312.011230 
	C183.495346,313.194427 186.308304,314.554565 189.469254,315.916382 
	C201.509308,321.313812 213.201385,326.709503 225.225311,332.182068 
	C232.079605,334.805786 238.602066,337.352600 245.474991,339.977905 
z"/>
<path fill="#A8EBE5" opacity="1.000000" stroke="none" 
	d="
M281.046143,352.313660 
	C285.582520,352.696564 290.250763,353.402374 295.324829,354.160828 
	C289.949371,357.853455 286.734314,357.505096 281.046143,352.313660 
z"/>
<path fill="#F4F9F4" opacity="1.000000" stroke="none" 
	d="
M184.834045,356.044769 
	C181.248581,356.629364 179.512650,355.150757 180.156693,352.048981 
	C180.347992,351.127686 182.790009,349.775024 183.740479,350.075592 
	C186.810287,351.046204 187.038696,353.329132 184.834045,356.044769 
z"/>
<path fill="#434A45" opacity="1.000000" stroke="none" 
	d="
M235.563782,409.019928 
	C235.814102,409.621979 235.595032,410.181763 234.721329,410.919983 
	C227.191330,411.125061 220.315948,411.151672 213.440582,411.178253 
	C211.601700,411.288269 209.762833,411.398285 207.583160,411.628448 
	C205.731949,411.223572 204.259735,410.488312 202.705231,410.205719 
	C185.453506,407.069275 168.189056,404.002930 150.548721,400.844360 
	C150.332397,400.255493 150.495392,399.739899 150.838074,399.016724 
	C178.555389,406.233063 206.539642,409.963959 235.563782,409.019928 
z"/>
<path fill="#F4F9F4" opacity="1.000000" stroke="none" 
	d="
M376.924438,386.584473 
	C382.585480,386.046143 389.587219,392.763397 390.900635,399.657928 
	C391.983734,405.343506 390.615143,410.588318 387.133514,415.122681 
	C386.401581,416.075958 384.475342,416.112244 383.099426,416.571045 
	C383.059265,415.239288 382.545349,413.683899 383.052124,412.610321 
	C388.115204,401.884796 387.399750,398.631195 378.320923,390.823151 
	C377.360931,389.997559 377.219360,388.220276 376.924438,386.584473 
z"/>
<path fill="#F4F9F4" opacity="1.000000" stroke="none" 
	d="
M142.695068,422.280762 
	C149.891998,425.369659 156.015350,423.543152 162.026947,419.935364 
	C163.294098,419.174896 165.198166,419.475708 166.808777,419.287537 
	C166.129166,420.875519 165.898575,423.107697 164.696274,423.945801 
	C157.462463,428.988220 149.593170,430.888062 141.176239,427.043976 
	C139.927750,426.473816 139.190735,424.783722 138.217102,423.611725 
	C139.585480,423.108704 140.953857,422.605652 142.695068,422.280762 
z"/>
<path fill="#A8EBE5" opacity="1.000000" stroke="none" 
	d="
M213.656158,411.405518 
	C220.315948,411.151672 227.191330,411.125061 234.532471,411.158569 
	C234.998260,411.218658 234.959824,411.689606 234.890320,411.915466 
	C227.241211,418.336334 226.907288,418.346069 217.947647,413.408783 
	C216.655258,412.696564 215.233582,412.218964 213.656158,411.405518 
z"/>
<path fill="#F4F9F4" opacity="1.000000" stroke="none" 
	d="
M368.801819,419.457825 
	C369.817169,418.009705 370.734100,416.461334 372.034271,416.005066 
	C372.644897,415.790771 374.461761,417.519196 374.854462,418.667358 
	C375.150269,419.532349 374.049835,420.874878 373.570892,422.004822 
	C372.000732,421.271606 370.430603,420.538391 368.801819,419.457825 
z"/>
<path fill="#F4F9F4" opacity="1.000000" stroke="none" 
	d="
M172.902054,409.394836 
	C175.905380,409.599274 178.307632,410.563721 177.943298,414.569427 
	C176.070877,414.932434 174.186020,414.919006 172.301147,414.905548 
	C172.457748,413.171753 172.614334,411.437958 172.902054,409.394836 
z"/>
<path fill="#38AD37" opacity="1.000000" stroke="none" 
	d="
M300.423859,269.975403 
	C302.376923,274.913177 305.159454,279.154022 310.299225,281.277802 
	C316.910828,284.009857 321.659790,281.778961 323.909271,274.956451 
	C324.635223,272.754700 325.332764,270.543579 326.284668,268.077332 
	C329.520844,272.145203 330.042755,278.226196 327.528107,281.747040 
	C324.218811,286.380493 318.964081,287.708069 314.253265,286.292694 
	C308.314026,284.508179 302.926178,280.888519 297.289581,278.055084 
	C297.322449,278.263153 297.530975,279.556366 297.730621,280.851013 
	C298.669739,286.940796 294.797211,291.760254 288.667572,291.981659 
	C279.922638,292.297546 272.503448,288.989716 265.960480,283.423615 
	C264.839722,282.470215 263.782013,281.442719 262.716492,280.468933 
	C246.969299,294.252167 240.530060,295.275970 231.345215,285.026886 
	C235.349335,281.608795 236.353714,277.583801 236.374588,272.970398 
	C254.588196,271.228668 271.626801,266.583069 288.314331,260.206879 
	C290.457916,267.325348 292.826447,269.200470 300.423859,269.975403 
M296.491852,274.548523 
	C296.491852,274.548523 296.468842,274.493652 296.491852,274.548523 
z"/>
<path fill="#FFB833" opacity="1.000000" stroke="none" 
	d="
M235.944519,272.996552 
	C236.353714,277.583801 235.349335,281.608795 231.178345,284.731079 
	C227.600586,285.042145 224.230469,285.078949 220.470093,285.052429 
	C212.554077,277.115936 213.949570,268.126740 223.110260,265.735992 
	C228.070450,264.441467 231.730377,266.562256 234.853165,270.993927 
	C235.380386,272.015778 235.662445,272.506165 235.944519,272.996552 
z"/>
<path fill="#F4F9F4" opacity="1.000000" stroke="none" 
	d="
M362.806152,295.267029 
	C363.812469,298.428467 365.158966,301.224670 365.364319,304.102325 
	C365.652466,308.140076 363.300446,311.025055 359.468445,312.352692 
	C358.600525,312.653412 356.954163,312.331238 356.479614,311.691925 
	C355.993835,311.037476 356.107239,309.346954 356.645630,308.616760 
	C361.063599,302.624878 361.014496,301.715973 356.841217,295.161499 
	C355.516937,293.081635 351.221985,290.750305 354.554779,288.274109 
	C358.049347,285.677704 359.062500,290.616150 361.000488,292.455597 
	C361.700653,293.120178 362.100281,294.101410 362.806152,295.267029 
z"/>
<path fill="#F4F9F4" opacity="1.000000" stroke="none" 
	d="
M347.313507,312.870728 
	C346.290802,312.371735 345.615112,311.806915 344.724335,311.088928 
	C345.082092,309.317444 345.654938,307.699127 346.227783,306.080780 
	C347.558197,306.754364 348.888641,307.427948 350.219055,308.101562 
	C349.366211,309.669342 348.513336,311.237091 347.313507,312.870728 
z"/>
<path fill="#FA1D27" opacity="1.000000" stroke="none" 
	d="
M246.946838,176.384827 
	C247.542816,175.805862 247.978012,175.534225 248.591675,175.062805 
	C259.208496,172.124710 264.981323,176.785339 263.866028,187.771301 
	C263.476898,188.872894 263.256714,189.390060 262.756805,190.113373 
	C258.414062,195.277924 253.485474,195.684280 247.983566,193.075287 
	C246.534760,190.554276 245.085953,188.033249 243.475311,185.196869 
	C244.470993,182.151718 245.628525,179.421936 246.946838,176.384827 
z"/>
<path fill="#FA1D27" opacity="1.000000" stroke="none" 
	d="
M300.792175,269.754883 
	C292.826447,269.200470 290.457916,267.325348 288.387543,259.854706 
	C288.249786,258.708679 288.207947,258.230316 288.166077,257.751953 
	C289.727264,255.431122 291.288483,253.110291 293.044495,250.515442 
	C296.807434,250.188629 300.375580,250.135849 304.448853,250.398224 
	C305.253845,250.861374 305.553650,251.009369 305.986359,251.447113 
	C307.099976,253.173874 308.080750,254.610870 309.047607,256.475769 
	C307.950928,260.395874 306.868164,263.888062 305.785400,267.380280 
	C304.243774,268.098297 302.702148,268.816345 300.792175,269.754883 
z"/>
<path fill="#38AD37" opacity="1.000000" stroke="none" 
	d="
M247.984100,193.506393 
	C253.485474,195.684280 258.414062,195.277924 263.056274,190.271347 
	C266.157837,192.074402 268.680237,193.925644 271.202637,195.776871 
	C268.482452,199.674622 266.227295,204.032608 262.932465,207.361618 
	C258.061676,212.282944 251.964905,210.667755 249.733139,204.114243 
	C248.637421,200.896667 248.536011,197.340454 247.984100,193.506393 
z"/>
<path fill="#384132" opacity="1.000000" stroke="none" 
	d="
M271.557983,195.845016 
	C268.680237,193.925644 266.157837,192.074402 263.335968,190.065201 
	C263.256714,189.390060 263.476898,188.872894 263.877136,188.131638 
	C266.164917,189.219406 268.272614,190.531281 270.920410,192.227020 
	C274.972443,194.077469 278.484344,195.544067 281.996246,197.010651 
	C281.996246,197.010651 282.001221,197.000000 282.113403,197.218079 
	C282.456604,197.691879 282.742554,197.845215 283.083466,197.896179 
	C290.180389,199.102142 297.277344,200.308090 304.707825,201.300812 
	C307.460846,200.768555 309.880310,200.449509 312.695435,200.049957 
	C313.481293,200.407669 313.871521,200.845871 314.381256,201.557983 
	C310.902405,202.567795 307.303986,203.303680 302.847870,204.037628 
	C297.661102,203.525009 293.332092,203.014313 289.003052,202.503601 
	C283.306458,200.306778 277.609894,198.109970 271.557983,195.845016 
z"/>
<path fill="#F4F9F4" opacity="1.000000" stroke="none" 
	d="
M328.850586,215.101303 
	C330.287964,217.567795 331.763947,219.620239 332.695801,221.895538 
	C333.060028,222.784927 332.201813,224.174957 331.900360,225.336975 
	C330.769226,225.019836 329.081696,225.065491 328.599121,224.325439 
	C325.891083,220.172607 323.363953,215.887848 321.059601,211.498764 
	C320.653503,210.725266 321.593384,209.245087 321.911713,208.091263 
	C323.050354,208.479980 324.572296,208.539719 325.247467,209.326263 
	C326.629517,210.936356 327.556946,212.936737 328.850586,215.101303 
z"/>
<path fill="#384132" opacity="1.000000" stroke="none" 
	d="
M305.853485,251.157364 
	C305.553650,251.009369 305.253845,250.861374 304.830841,250.486191 
	C309.340454,247.388123 313.973236,244.517242 319.156860,241.313904 
	C320.824829,240.012939 321.941925,239.044418 323.059052,238.075882 
	C326.750305,236.019577 330.441528,233.963272 334.479523,231.848633 
	C334.826263,231.790298 334.947906,231.940231 334.890808,232.300262 
	C334.498444,233.397568 334.163177,234.134827 333.827911,234.872086 
	C330.978943,236.681717 328.130005,238.491333 324.755615,240.659058 
	C322.426086,242.277451 320.621979,243.537750 318.482422,244.901352 
	C314.049164,247.055557 309.951324,249.106461 305.853485,251.157364 
z"/>
<path fill="#38AD37" opacity="1.000000" stroke="none" 
	d="
M289.114899,202.880676 
	C293.332092,203.014313 297.661102,203.525009 302.418579,204.079437 
	C297.996765,208.455734 293.789276,208.188400 289.114899,202.880676 
z"/>
<path fill="#F4F9F4" opacity="1.000000" stroke="none" 
	d="
M214.134689,239.071564 
	C213.678299,237.025604 213.221893,234.979630 212.765488,232.933670 
	C214.466583,233.180283 216.167679,233.426910 218.084595,234.000031 
	C218.178864,235.301468 218.057281,236.276428 217.794647,237.596283 
	C217.653580,237.941193 217.336227,237.903610 217.336227,237.903610 
	C217.336227,237.903610 217.050049,238.045898 216.632111,238.270599 
	C215.520996,238.687393 214.827850,238.879471 214.134689,239.071564 
z"/>
<path fill="#38AD37" opacity="1.000000" stroke="none" 
	d="
M322.754547,237.922913 
	C321.941925,239.044418 320.824829,240.012939 319.398926,241.082489 
	C318.039825,238.490295 316.989502,235.797089 315.939148,233.103882 
	C316.212067,232.934647 316.485016,232.765427 316.757935,232.596191 
	C318.655304,234.320786 320.552673,236.045364 322.754547,237.922913 
z"/>
<path fill="#38AD37" opacity="1.000000" stroke="none" 
	d="
M315.481323,230.479462 
	C315.519257,230.459564 315.443420,230.499344 315.481323,230.479462 
z"/>
<path fill="#38AD37" opacity="1.000000" stroke="none" 
	d="
M221.006287,237.009460 
	C221.013092,237.018677 221.213760,236.663666 221.213760,236.663666 
	C221.213760,236.663666 221.182816,236.907120 221.081970,236.946793 
	C220.981140,236.986465 220.999496,237.000244 221.006287,237.009460 
z"/>
<path fill="#38AD37" opacity="1.000000" stroke="none" 
	d="
M283.470215,238.528473 
	C283.452118,238.490753 283.488342,238.566193 283.470215,238.528473 
z"/>
<path fill="#F4F9F4" opacity="1.000000" stroke="none" 
	d="
M257.033844,52.064583 
	C262.107056,51.143814 262.895142,52.026485 261.502838,57.098431 
	C259.025482,66.123146 257.702362,67.212646 248.519547,67.085075 
	C247.311935,67.068298 246.119049,65.991432 244.919342,65.405540 
	C245.899963,64.326096 246.925949,62.278320 247.853973,62.321789 
	C254.715179,62.643162 256.634155,58.400265 257.208221,52.409855 
	C257.073334,52.023811 257.047638,52.051434 257.033844,52.064583 
z"/>
<path fill="#F4F9F4" opacity="1.000000" stroke="none" 
	d="
M294.421082,83.020142 
	C293.958588,83.452103 293.739258,83.623268 293.407349,83.984650 
	C289.699615,85.537651 289.724487,88.146721 290.288055,91.429398 
	C290.573944,93.094566 289.374054,95.014832 288.845886,96.819778 
	C287.701752,95.312119 285.952362,93.960014 285.517944,92.269936 
	C283.607635,84.837387 284.157532,83.631752 290.377899,79.753380 
	C291.374573,79.131958 292.756348,79.128113 293.960083,78.838768 
	C294.185822,80.134132 294.411560,81.429497 294.421082,83.020142 
z"/>
<path fill="#F4F9F4" opacity="1.000000" stroke="none" 
	d="
M258.088684,107.085960 
	C256.690125,107.728867 255.643158,108.613815 254.593216,108.617363 
	C253.494003,108.621086 252.119339,108.014336 251.413239,107.199440 
	C251.090378,106.826851 251.799652,104.810249 252.524673,104.405075 
	C256.282043,102.305305 260.142273,100.359688 264.100800,98.675598 
	C264.874298,98.346535 266.240204,99.410110 267.332886,99.831345 
	C266.883942,100.931480 266.745483,102.509293 265.927216,103.041168 
	C263.578552,104.567780 260.954681,105.670959 258.088684,107.085960 
z"/>
<path fill="#F4F9F4" opacity="1.000000" stroke="none" 
	d="
M302.264160,68.865250 
	C301.599640,70.511902 301.042786,72.202431 299.877563,72.972923 
	C299.372955,73.306595 297.186615,71.998871 296.563446,70.958138 
	C296.088379,70.164764 296.873047,68.617096 297.097290,67.404999 
	C298.773193,67.781982 300.449097,68.158966 302.264160,68.865250 
z"/>
<path fill="#F4F9F4" opacity="1.000000" stroke="none" 
	d="
M291.385040,106.877922 
	C289.798401,107.710434 288.216980,108.718269 286.863281,108.472351 
	C286.098694,108.333450 285.221283,106.093323 285.318909,104.873619 
	C285.385529,104.040871 287.668274,102.530350 287.896637,102.705956 
	C289.264160,103.757500 290.323120,105.210304 291.385040,106.877922 
z"/>
<path fill="#F4F9F4" opacity="1.000000" stroke="none" 
	d="
M268.809143,46.711155 
	C265.951111,48.983032 263.851410,48.275429 263.149841,45.238609 
	C262.913422,44.215302 264.355042,41.810345 265.236206,41.701035 
	C268.444244,41.303082 269.460114,43.392101 268.809143,46.711155 
z"/>
<path fill="#A8EBE5" opacity="1.000000" stroke="none" 
	d="
M373.130005,339.463196 
	C363.930206,344.624176 354.872101,350.200348 343.753815,349.812378 
	C341.551056,350.583191 339.230957,351.971832 336.829224,352.131348 
	C328.383026,352.692322 319.908722,352.830933 310.890472,352.647827 
	C306.682251,346.771667 305.102051,346.734558 299.683807,351.915710 
	C292.767578,350.947449 285.851318,349.979218 278.544922,348.911987 
	C277.795044,345.846924 277.435364,342.880890 277.075653,339.914825 
	C277.570282,339.668884 278.064911,339.422913 278.559540,339.176971 
	C280.481354,340.248474 282.446167,341.250336 284.317078,342.404419 
	C290.118408,345.983002 292.401306,345.953888 297.941315,342.076691 
	C299.301910,341.124512 300.597076,340.064209 302.020508,339.219025 
	C307.380005,336.036743 312.073212,336.552521 316.475708,340.983612 
	C318.810150,343.333221 320.698456,346.132812 323.076996,348.430298 
	C326.374847,351.615723 329.183685,351.011688 329.772095,346.677399 
	C331.288818,335.504761 335.231293,332.110901 348.966156,336.798950 
	C353.186890,338.239532 357.553558,339.601562 361.951019,340.057037 
	C365.063751,340.379486 368.340668,339.116486 371.837830,338.296753 
	C372.441345,338.425537 372.751312,338.818787 373.130005,339.463196 
z"/>
<path fill="#F4F9F4" opacity="1.000000" stroke="none" 
	d="
M250.953949,126.000824 
	C255.509094,124.632332 256.961761,125.445015 255.864166,129.589142 
	C254.568253,134.482071 252.494446,139.212631 250.292297,143.789566 
	C249.775360,144.863968 247.388977,145.038925 245.862656,145.627686 
	C245.911957,144.121948 245.634109,142.513229 246.069733,141.129059 
	C247.590622,136.296448 249.358078,131.541473 251.003571,126.347778 
	C250.975281,125.938553 250.987610,126.004906 250.953949,126.000824 
z"/>
<path fill="#F4F9F4" opacity="1.000000" stroke="none" 
	d="
M259.786255,120.847595 
	C258.341858,119.328995 257.171539,117.821960 256.306946,116.156258 
	C256.209625,115.968735 258.000732,114.207527 258.635071,114.358337 
	C259.920929,114.664017 261.914551,115.712265 261.979492,116.577263 
	C262.081451,117.935539 260.829285,119.395470 259.786255,120.847595 
z"/>
<path fill="#384132" opacity="1.000000" stroke="none" 
	d="
M287.773560,257.827148 
	C288.207947,258.230316 288.249786,258.708679 288.218445,259.539215 
	C271.626801,266.583069 254.588196,271.228668 236.374588,272.970398 
	C235.662445,272.506165 235.380386,272.015778 235.092743,271.235352 
	C253.179886,269.249664 270.503082,264.468536 287.773560,257.827148 
z"/>
<path fill="#F4F9F4" opacity="1.000000" stroke="none" 
	d="
M192.860870,269.450439 
	C194.740387,269.526886 196.297287,269.845612 198.051697,270.453186 
	C197.484467,275.416138 193.513214,274.643585 190.491394,275.060730 
	C185.857529,275.700378 181.575089,274.989166 178.681824,269.026520 
	C183.744247,269.269928 188.141251,269.481354 192.860870,269.450439 
z"/>
<path fill="#F4F9F4" opacity="1.000000" stroke="none" 
	d="
M202.027496,271.357727 
	C201.929749,270.593903 201.990738,270.150879 202.033859,269.372864 
	C203.299240,268.549286 204.739029,267.458374 205.822113,267.739838 
	C206.926346,268.026855 208.109497,269.545380 208.439636,270.749176 
	C208.669113,271.585938 207.273743,273.758240 207.018341,273.693787 
	C205.344696,273.271271 203.783890,272.401917 202.027496,271.357727 
z"/>
<path fill="#267D24" opacity="1.000000" stroke="none" 
	d="
M214.038513,239.383057 
	C214.827850,238.879471 215.520996,238.687393 216.568451,238.417694 
	C215.091766,240.055923 213.260788,241.771759 211.196411,243.278839 
	C211.956146,241.944931 212.949234,240.819748 214.038513,239.383057 
z"/>
<path fill="#267D24" opacity="1.000000" stroke="none" 
	d="
M281.965210,196.652802 
	C278.484344,195.544067 274.972443,194.077469 271.227783,192.373535 
	C272.056610,189.134171 273.118164,186.132126 274.463501,182.327469 
	C277.123444,187.300583 279.528839,191.797775 281.965210,196.652802 
z"/>
<path fill="#267D24" opacity="1.000000" stroke="none" 
	d="
M282.940491,197.702225 
	C282.742554,197.845215 282.456604,197.691879 282.108246,197.218658 
	C282.311218,197.088425 282.580078,197.257462 282.940491,197.702225 
z"/>
<path fill="#F4F9F4" opacity="1.000000" stroke="none" 
	d="
M292.642700,451.634918 
	C293.120605,456.503601 293.718292,460.951599 293.830933,465.411865 
	C293.861969,466.640472 292.445404,467.905640 291.693054,469.154053 
	C290.774963,468.028137 289.250397,467.001312 289.047333,465.758545 
	C288.300781,461.190002 287.820770,456.556885 287.631683,451.932068 
	C287.579681,450.659973 288.889801,449.332214 289.574890,448.029999 
	C290.576447,449.092957 291.578003,450.155914 292.642700,451.634918 
z"/>
<path fill="#F4F9F4" opacity="1.000000" stroke="none" 
	d="
M259.921509,457.722931 
	C258.759125,459.677124 257.635223,461.215393 256.511353,462.753662 
	C255.957657,460.907074 254.892944,459.043030 254.955063,457.217377 
	C255.090179,453.246368 255.566483,449.244537 256.404541,445.363495 
	C256.689117,444.045624 258.478912,443.052826 259.580902,441.911499 
	C260.172272,443.250000 261.311127,444.613434 261.251587,445.922302 
	C261.078308,449.728912 260.425049,453.513672 259.921509,457.722931 
z"/>
<path fill="#F4F9F4" opacity="1.000000" stroke="none" 
	d="
M259.136475,437.519836 
	C257.972260,435.853546 257.038300,434.312836 256.495911,432.644836 
	C256.431366,432.446350 258.707764,430.887360 259.536285,431.141479 
	C260.712158,431.502258 262.496948,433.176483 262.331055,433.903900 
	C262.016541,435.282959 260.501160,436.388153 259.136475,437.519836 
z"/>
<path fill="#F4F9F4" opacity="1.000000" stroke="none" 
	d="
M295.346252,474.011963 
	C295.159668,475.848663 294.729767,477.387177 294.299866,478.925720 
	C292.988953,478.521759 291.146332,478.497559 290.512482,477.610016 
	C289.840668,476.669373 290.317627,474.908325 290.292847,473.505585 
	C291.896210,473.574982 293.499573,473.644379 295.346252,474.011963 
z"/>
<path fill="#F4F9F4" opacity="1.000000" stroke="none" 
	d="
M195.841064,230.479034 
	C195.667664,234.697983 197.458710,236.377716 201.267044,236.107361 
	C202.745728,236.002396 204.293549,235.935165 205.710602,236.270386 
	C206.487854,236.454269 207.475983,237.441940 207.602554,238.195862 
	C207.724808,238.923996 207.071838,240.225861 206.398438,240.570648 
	C202.579910,242.525757 198.778534,242.354477 195.063431,240.069992 
	C191.669540,237.983047 190.558243,234.870850 191.025467,231.148224 
	C191.149597,230.159225 192.083054,228.509796 192.654984,228.505524 
	C193.687439,228.497787 194.727463,229.501724 195.841064,230.479034 
z"/>
<path fill="#3BAD39" opacity="1.000000" stroke="none" 
	d="
M318.817841,244.798050 
	C320.621979,243.537750 322.426086,242.277451 324.549622,240.921661 
	C328.863983,244.518387 333.352875,246.851654 339.440491,245.944229 
	C341.043518,248.014297 342.217590,250.106567 343.463776,252.572693 
	C342.117340,256.508850 339.568359,257.602692 335.929871,256.539825 
	C334.659515,256.168732 333.316254,256.049774 332.008484,255.804001 
	C320.982574,253.731934 319.579895,254.514404 315.847748,264.828735 
	C313.331207,271.783600 311.895996,272.235565 306.007996,267.618805 
	C306.868164,263.888062 307.950928,260.395874 309.432495,256.461670 
	C316.702576,254.882919 319.103210,251.885208 318.817841,244.798050 
z"/>
<path fill="#F4F9F4" opacity="1.000000" stroke="none" 
	d="
M343.393677,264.351166 
	C343.806549,266.149170 343.866577,267.756805 343.926605,269.364380 
	C342.680725,269.379364 341.083374,269.868774 340.286102,269.278168 
	C339.460663,268.666687 338.739868,266.400360 339.162354,265.933197 
	C340.037903,264.965057 341.701355,264.709381 343.393677,264.351166 
z"/>
<path fill="#F4F9F4" opacity="1.000000" stroke="none" 
	d="
M348.256958,353.242371 
	C348.710663,352.928680 348.968903,352.880157 349.414856,352.736389 
	C351.035217,353.778168 352.455383,354.848602 353.915039,356.277649 
	C352.467865,357.412689 350.981293,358.189087 349.494690,358.965485 
	C349.021088,357.168365 348.547516,355.371277 348.256958,353.242371 
z"/>
<path fill="#F4F9F4" opacity="1.000000" stroke="none" 
	d="
M232.590363,186.975098 
	C229.542877,190.636429 225.669205,190.758743 222.234222,189.009567 
	C220.245422,187.996841 218.968628,185.284714 217.827164,183.099319 
	C217.499924,182.472809 218.762329,181.016022 219.295868,179.939941 
	C220.323837,180.505356 222.038086,180.876801 222.262131,181.669418 
	C223.283310,185.282578 225.631668,184.875519 228.481949,184.610703 
	C229.799103,184.488297 231.258392,185.895691 232.590363,186.975098 
z"/>
<path fill="#F4F9F4" opacity="1.000000" stroke="none" 
	d="
M240.819733,184.850021 
	C239.700790,184.764450 238.272614,185.268906 237.826920,184.812973 
	C236.689957,183.649872 235.687469,182.137100 235.287125,180.594040 
	C235.152374,180.074661 237.451843,178.186859 237.848251,178.399338 
	C239.255753,179.153763 240.454727,180.444977 241.437851,181.754257 
	C241.737183,182.152893 241.085678,183.265488 240.782532,184.368500 
	C240.695404,184.685913 240.957932,185.002670 240.819733,184.850021 
z"/>
<path fill="#F4F9F4" opacity="1.000000" stroke="none" 
	d="
M333.925415,235.217010 
	C334.163177,234.134827 334.498444,233.397568 334.953552,232.373642 
	C335.776520,232.016159 336.479614,231.945343 337.529724,231.824203 
	C340.411041,233.312424 341.774811,235.662857 339.332642,237.801529 
	C337.088318,239.766891 335.026520,238.189209 333.925415,235.217010 
z"/>
<path fill="#3BAD39" opacity="1.000000" stroke="none" 
	d="
M300.056702,352.143860 
	C305.102051,346.734558 306.682251,346.771667 310.477905,352.512970 
	C307.223175,352.697418 303.826416,352.534729 300.056702,352.143860 
z"/>
<path fill="#267D24" opacity="1.000000" stroke="none" 
	d="
M296.480347,274.521088 
	C296.468842,274.493652 296.491852,274.548523 296.480347,274.521088 
z"/>
<path fill="#267D24" opacity="1.000000" stroke="none" 
	d="
M318.482422,244.901352 
	C319.103210,251.885208 316.702576,254.882919 309.446381,256.033783 
	C308.080750,254.610870 307.099976,253.173874 305.986359,251.447113 
	C309.951324,249.106461 314.049164,247.055557 318.482422,244.901352 
z"/>
</svg>